{"title":"[WoodmanCasting] - Lucy Li (aka Scarlett Lee) first DP","uid":11130112,"size":364009560,"categoryP":"porn","categoryS":"movie_clips","magnet":"?xt=urn:btih:707368b5f30d2bf8709a34229752ae1c3a415005&amp;dn=%5BWoodmanCasting%5D+-+Lucy+Li+%28aka+Scarlett+Lee%29+first+DP&amp;tr=udp%3A%2F%2Ftracker.openbittorrent.com%3A80&amp;tr=udp%3A%2F%2Fopen.demonii.com%3A1337&amp;tr=udp%3A%2F%2Ftracker.coppersurfer.tk%3A6969&amp;tr=udp%3A%2F%2Fexodus.desync.com%3A6969","seeders":1,"leechers":1,"uploader":"supertongo","files":1,"time":1412027947,"description":"[WoodmanCasting] - Lucy Li (aka Scarlett Lee) first DP video in ipod/psp/mobile compatible resolution\n\n:::Media info:::\n\nGeneral\n\nFormat                         : MPEG-4\nCodec ID                       : M4V \nFile size                      : 347 MiB\nDuration                       : 37mn 49s\nOverall bit rate mode          : Variable\nOverall bit rate               : 1 283 Kbps\nWriting application            : Lavf54.59.106\n\nVideo\nID                             : 1\nFormat                         : AVC\nFormat/Info                    : Advanced Video Codec\nFormat profile                 : &lt;a class=&quot;__cf_email__&quot; href=&quot;/cdn-cgi/l/email-protection&quot; data-cfemail=&quot;c98ba8baaca5a0a7ac8985fae7f9&quot;&gt;[email&amp;#160;protected]&lt;/a&gt;&lt;script data-cfhash='f9e31' type=&quot;text/javascript&quot;&gt;\n/* &lt;![CDATA[ */!function(){try{var t=&quot;currentScript&quot;in document?document.currentScript:function(){for(var t=document.getElementsByTagName(&quot;script&quot;),e=t.length;e--;)if(t[e].getAttribute(&quot;data-cfhash&quot;))return t[e]}();if(t&amp;&amp;t.previousSibling){var e,r,n,i,c=t.previousSibling,a=c.getAttribute(&quot;data-cfemail&quot;);if(a){for(e=&quot;&quot;,r=parseInt(a.substr(0,2),16),n=2;a.length-n;n+=2)i=parseInt(a.substr(n,2),16)^r,e+=String.fromCharCode(i);e=document.createTextNode(e),c.parentNode.replaceChild(e,c)}t.parentNode.removeChild(t);}}catch(u){}}()/* ]]&gt; */&lt;/script&gt;\nFormat settings, CABAC         : No\nFormat settings, ReFrames      : 2 frames\nCodec ID                       : avc1\nCodec ID/Info                  : Advanced Video Coding\nDuration                       : 37mn 49s\nBit rate                       : 1 200 Kbps\nWidth                          : 960 pixels\nHeight                         : 640 pixels\nDisplay aspect ratio           : 3:2\nFrame rate mode                : Constant\nFrame rate                     : 30.000 fps\nColor space                    : YUV\nChroma subsampling             : 4:2:0\nBit depth                      : 8 bits\nScan type                      : Progressive\nBits/(Pixel*Frame)             : 0.065\nStream size                    : 325 MiB (94%)\n\nAudio\nID                             : 2\nFormat                         : AAC\nFormat/Info                    : Advanced Audio Codec\nFormat profile                 : LC\nCodec ID                       : 40\nDuration                       : 37mn 49s\nBit rate mode                  : Variable\nBit rate                       : 75.9 Kbps\nMaximum bit rate               : 10 000 Kbps\nChannel(s)                     : 2 channels\nChannel positions              : Front: L R\nSampling rate                  : 22.05 KHz\nCompression mode               : Lossy\nStream size                    : 20.5 MiB (6%)\n &lt;a href=&quot;\nhttp://bayimg.com/paaelaAGl&quot; rel=&quot;nofollow&quot; target=&quot;_NEW&quot;&gt;\nhttp://bayimg.com/paaelaAGl&lt;/a&gt;","torrent":{"xt":"urn:btih:707368b5f30d2bf8709a34229752ae1c3a415005","amp;dn":"%5BWoodmanCasting%5D+-+Lucy+Li+%28aka+Scarlett+Lee%29+first+DP","amp;tr":["udp%3A%2F%2Ftracker.openbittorrent.com%3A80","udp%3A%2F%2Fopen.demonii.com%3A1337","udp%3A%2F%2Ftracker.coppersurfer.tk%3A6969","udp%3A%2F%2Fexodus.desync.com%3A6969"],"infoHash":"707368b5f30d2bf8709a34229752ae1c3a415005","infoHashBuffer":{"type":"Buffer","data":[112,115,104,181,243,13,43,248,112,154,52,34,151,82,174,28,58,65,80,5]},"announce":[],"urlList":[]}}